<svg width="272" height="216" viewBox="0 0 272 216" fill="none" xmlns="http://www.w3.org/2000/svg">
<path d="M33.0466 185.26C33.0466 187.64 32.1013 189.922 30.4187 191.604C28.7362 193.287 26.4541 194.232 24.0746 194.232C21.695 194.232 19.413 193.287 17.7304 191.604C16.0478 189.922 15.1025 187.64 15.1025 185.26C15.1025 182.881 16.0478 180.599 17.7304 178.916C19.413 177.233 21.695 176.288 24.0746 176.288C26.4541 176.288 28.7362 177.233 30.4187 178.916C32.1013 180.599 33.0466 182.881 33.0466 185.26V185.26Z" fill="url(#paint0_linear_2239_79816)"/>
<path fill-rule="evenodd" clip-rule="evenodd" d="M0.149414 191.242C0.149414 184.896 2.67012 178.811 7.157 174.324C11.6439 169.837 17.7294 167.316 24.0748 167.316C30.4202 167.316 36.5057 169.837 40.9926 174.324C45.4795 178.811 48.0002 184.896 48.0002 191.242C48.0002 197.587 45.4795 203.673 40.9926 208.16C36.5057 212.646 30.4202 215.167 24.0748 215.167C17.7294 215.167 11.6439 212.646 7.157 208.16C2.67012 203.673 0.149414 197.587 0.149414 191.242V191.242ZM24.0748 170.307C20.1324 170.307 16.2702 171.421 12.9328 173.519C9.59527 175.618 6.91815 178.616 5.20953 182.169C3.5009 185.722 2.83021 189.685 3.27466 193.602C3.71911 197.519 5.26063 201.231 7.7218 204.311C9.84518 200.89 14.5196 197.223 24.0748 197.223C33.63 197.223 38.3014 200.887 40.4278 204.311C42.889 201.231 44.4305 197.519 44.8749 193.602C45.3194 189.685 44.6487 185.722 42.9401 182.169C41.2314 178.616 38.5543 175.618 35.2168 173.519C31.8794 171.421 28.0172 170.307 24.0748 170.307V170.307Z" fill="url(#paint1_linear_2239_79816)"/>
<path d="M145.047 185.26C145.047 187.64 144.101 189.922 142.419 191.604C140.736 193.287 138.454 194.232 136.075 194.232C133.695 194.232 131.413 193.287 129.73 191.604C128.048 189.922 127.103 187.64 127.103 185.26C127.103 182.881 128.048 180.599 129.73 178.916C131.413 177.233 133.695 176.288 136.075 176.288C138.454 176.288 140.736 177.233 142.419 178.916C144.101 180.599 145.047 182.881 145.047 185.26V185.26Z" fill="url(#paint2_linear_2239_79816)"/>
<path fill-rule="evenodd" clip-rule="evenodd" d="M112.149 191.242C112.149 184.896 114.67 178.811 119.157 174.324C123.644 169.837 129.729 167.316 136.075 167.316C142.42 167.316 148.506 169.837 152.993 174.324C157.479 178.811 160 184.896 160 191.242C160 197.587 157.479 203.673 152.993 208.16C148.506 212.646 142.42 215.167 136.075 215.167C129.729 215.167 123.644 212.646 119.157 208.16C114.67 203.673 112.149 197.587 112.149 191.242V191.242ZM136.075 170.307C132.132 170.307 128.27 171.421 124.933 173.519C121.595 175.618 118.918 178.616 117.21 182.169C115.501 185.722 114.83 189.685 115.275 193.602C115.719 197.519 117.261 201.231 119.722 204.311C121.845 200.89 126.52 197.223 136.075 197.223C145.63 197.223 150.301 200.887 152.428 204.311C154.889 201.231 156.43 197.519 156.875 193.602C157.319 189.685 156.649 185.722 154.94 182.169C153.231 178.616 150.554 175.618 147.217 173.519C143.879 171.421 140.017 170.307 136.075 170.307V170.307Z" fill="url(#paint3_linear_2239_79816)"/>
<path d="M257.047 185.26C257.047 187.64 256.101 189.922 254.419 191.604C252.736 193.287 250.454 194.232 248.075 194.232C245.695 194.232 243.413 193.287 241.73 191.604C240.048 189.922 239.103 187.64 239.103 185.26C239.103 182.881 240.048 180.599 241.73 178.916C243.413 177.233 245.695 176.288 248.075 176.288C250.454 176.288 252.736 177.233 254.419 178.916C256.101 180.599 257.047 182.881 257.047 185.26V185.26Z" fill="url(#paint4_linear_2239_79816)"/>
<path fill-rule="evenodd" clip-rule="evenodd" d="M224.149 191.242C224.149 184.896 226.67 178.811 231.157 174.324C235.644 169.837 241.729 167.316 248.075 167.316C254.42 167.316 260.506 169.837 264.993 174.324C269.479 178.811 272 184.896 272 191.242C272 197.587 269.479 203.673 264.993 208.16C260.506 212.646 254.42 215.167 248.075 215.167C241.729 215.167 235.644 212.646 231.157 208.16C226.67 203.673 224.149 197.587 224.149 191.242V191.242ZM248.075 170.307C244.132 170.307 240.27 171.421 236.933 173.519C233.595 175.618 230.918 178.616 229.21 182.169C227.501 185.722 226.83 189.685 227.275 193.602C227.719 197.519 229.261 201.231 231.722 204.311C233.845 200.89 238.52 197.223 248.075 197.223C257.63 197.223 262.301 200.887 264.428 204.311C266.889 201.231 268.43 197.519 268.875 193.602C269.319 189.685 268.649 185.722 266.94 182.169C265.231 178.616 262.554 175.618 259.217 173.519C255.879 171.421 252.017 170.307 248.075 170.307V170.307Z" fill="url(#paint5_linear_2239_79816)"/>
<path d="M149.18 26.4258C149.18 29.8197 147.831 33.0747 145.432 35.4745C143.032 37.8744 139.777 39.2227 136.383 39.2227C132.989 39.2227 129.734 37.8744 127.334 35.4745C124.934 33.0747 123.586 29.8197 123.586 26.4258C123.586 23.0318 124.934 19.7769 127.334 17.377C129.734 14.9771 132.989 13.6289 136.383 13.6289C139.777 13.6289 143.032 14.9771 145.432 17.377C147.831 19.7769 149.18 23.0318 149.18 26.4258V26.4258Z" fill="url(#paint6_linear_2239_79816)"/>
<path fill-rule="evenodd" clip-rule="evenodd" d="M102.258 34.957C102.258 25.9065 105.853 17.2267 112.253 10.827C118.652 4.42733 127.332 0.832031 136.383 0.832031C145.433 0.832031 154.113 4.42733 160.513 10.827C166.913 17.2267 170.508 25.9065 170.508 34.957C170.508 44.0075 166.913 52.6874 160.513 59.0871C154.113 65.4867 145.433 69.082 136.383 69.082C127.332 69.082 118.652 65.4867 112.253 59.0871C105.853 52.6874 102.258 44.0075 102.258 34.957V34.957ZM136.383 5.09766C130.76 5.09796 125.251 6.68602 120.491 9.67906C115.731 12.6721 111.912 16.9485 109.475 22.016C107.038 27.0834 106.081 32.7361 106.715 38.3233C107.349 43.9105 109.548 49.2051 113.058 53.5978C116.087 48.7179 122.754 43.4883 136.383 43.4883C150.011 43.4883 156.674 48.7137 159.707 53.5978C163.218 49.2051 165.416 43.9105 166.05 38.3233C166.684 32.7361 165.728 27.0834 163.291 22.016C160.853 16.9485 157.035 12.6721 152.275 9.67906C147.515 6.68602 142.006 5.09796 136.383 5.09766V5.09766Z" fill="url(#paint7_linear_2239_79816)"/>
<path d="M135.551 158.961C135.941 159.352 136.574 159.352 136.965 158.961L143.329 152.597C143.719 152.207 143.719 151.573 143.329 151.183C142.938 150.792 142.305 150.792 141.915 151.183L136.258 156.84L130.601 151.183C130.21 150.792 129.577 150.792 129.187 151.183C128.796 151.573 128.796 152.207 129.187 152.597L135.551 158.961ZM135.258 69.2539V158.254H137.258V69.2539H135.258Z" fill="white"/>
<path d="M23.5507 157.961C23.9412 158.352 24.5744 158.352 24.9649 157.961L31.3289 151.597C31.7194 151.207 31.7194 150.573 31.3289 150.183C30.9384 149.792 30.3052 149.792 29.9147 150.183L24.2578 155.84L18.601 150.183C18.2104 149.792 17.5773 149.792 17.1867 150.183C16.7962 150.573 16.7962 151.207 17.1867 151.597L23.5507 157.961ZM247.551 157.961C247.941 158.352 248.574 158.352 248.965 157.961L255.329 151.597C255.719 151.207 255.719 150.573 255.329 150.183C254.938 149.792 254.305 149.792 253.915 150.183L248.258 155.84L242.601 150.183C242.21 149.792 241.577 149.792 241.187 150.183C240.796 150.573 240.796 151.207 241.187 151.597L247.551 157.961ZM25.2578 157.254V129.254H23.2578V157.254H25.2578ZM32.2578 122.254H240.258V120.254H32.2578V122.254ZM247.258 129.254V157.254H249.258V129.254H247.258ZM240.258 122.254C244.124 122.254 247.258 125.388 247.258 129.254H249.258C249.258 124.283 245.228 120.254 240.258 120.254V122.254ZM25.2578 129.254C25.2578 125.388 28.3918 122.254 32.2578 122.254V120.254C27.2872 120.254 23.2578 124.283 23.2578 129.254H25.2578Z" fill="white"/>
<defs>
<linearGradient id="paint0_linear_2239_79816" x1="15.949" y1="191.483" x2="35.5753" y2="190.116" gradientUnits="userSpaceOnUse">
<stop stop-color="#72A3F0"/>
<stop offset="0.354167" stop-color="#FAE4ED"/>
<stop offset="0.78125" stop-color="#FAC1AE"/>
</linearGradient>
<linearGradient id="paint1_linear_2239_79816" x1="2.40653" y1="207.835" x2="54.7435" y2="204.191" gradientUnits="userSpaceOnUse">
<stop stop-color="#72A3F0"/>
<stop offset="0.354167" stop-color="#FAE4ED"/>
<stop offset="0.78125" stop-color="#FAC1AE"/>
</linearGradient>
<linearGradient id="paint2_linear_2239_79816" x1="127.949" y1="191.483" x2="147.575" y2="190.116" gradientUnits="userSpaceOnUse">
<stop stop-color="#72A3F0"/>
<stop offset="0.354167" stop-color="#FAE4ED"/>
<stop offset="0.78125" stop-color="#FAC1AE"/>
</linearGradient>
<linearGradient id="paint3_linear_2239_79816" x1="114.407" y1="207.835" x2="166.743" y2="204.191" gradientUnits="userSpaceOnUse">
<stop stop-color="#72A3F0"/>
<stop offset="0.354167" stop-color="#FAE4ED"/>
<stop offset="0.78125" stop-color="#FAC1AE"/>
</linearGradient>
<linearGradient id="paint4_linear_2239_79816" x1="239.949" y1="191.483" x2="259.575" y2="190.116" gradientUnits="userSpaceOnUse">
<stop stop-color="#72A3F0"/>
<stop offset="0.354167" stop-color="#FAE4ED"/>
<stop offset="0.78125" stop-color="#FAC1AE"/>
</linearGradient>
<linearGradient id="paint5_linear_2239_79816" x1="226.407" y1="207.835" x2="278.743" y2="204.191" gradientUnits="userSpaceOnUse">
<stop stop-color="#72A3F0"/>
<stop offset="0.354167" stop-color="#FAE4ED"/>
<stop offset="0.78125" stop-color="#FAC1AE"/>
</linearGradient>
<linearGradient id="paint6_linear_2239_79816" x1="124.793" y1="35.301" x2="152.786" y2="33.3518" gradientUnits="userSpaceOnUse">
<stop stop-color="#72A3F0"/>
<stop offset="0.354167" stop-color="#FAE4ED"/>
<stop offset="0.78125" stop-color="#FAC1AE"/>
</linearGradient>
<linearGradient id="paint7_linear_2239_79816" x1="105.477" y1="58.6244" x2="180.126" y2="53.4265" gradientUnits="userSpaceOnUse">
<stop stop-color="#72A3F0"/>
<stop offset="0.354167" stop-color="#FAE4ED"/>
<stop offset="0.78125" stop-color="#FAC1AE"/>
</linearGradient>
</defs>
</svg>
