<svg width="494" height="344" viewBox="0 0 494 344" fill="none" xmlns="http://www.w3.org/2000/svg">
<g filter="url(#filter0_dd_2239_79796)">
<g filter="url(#filter1_bi_2239_79796)">
<rect x="69" y="54" width="181.063" height="181.063" rx="21.3015" fill="white" fill-opacity="0.4"/>
</g>
<path d="M91.3408 88.8561C91.3408 81.7974 97.063 76.0752 104.122 76.0752H121.163C128.222 76.0752 133.944 81.7974 133.944 88.8561V105.897C133.944 112.956 128.222 118.678 121.163 118.678H104.122C97.063 118.678 91.3408 112.956 91.3408 105.897V88.8561Z" fill="#D5D5D5"/>
<path d="M123.045 91.3932C122.278 91.7338 121.454 91.9631 120.589 92.0664C121.472 91.5375 122.149 90.6999 122.468 89.7013C121.643 90.191 120.728 90.5468 119.753 90.7392C118.973 89.908 117.862 89.3887 116.633 89.3887C114.272 89.3887 112.358 91.3034 112.358 93.6638C112.358 93.9988 112.396 94.3258 112.468 94.6376C108.915 94.4597 105.765 92.7573 103.656 90.1701C103.289 90.8017 103.078 91.5359 103.078 92.3205C103.078 93.8033 103.832 95.1121 104.979 95.8783C104.279 95.8559 103.619 95.6635 103.043 95.3437C103.043 95.3622 103.043 95.379 103.043 95.3974C103.043 97.4693 104.516 99.1973 106.472 99.5892C106.114 99.687 105.736 99.7391 105.345 99.7391C105.07 99.7391 104.802 99.7119 104.541 99.663C105.086 101.361 106.665 102.598 108.535 102.632C107.073 103.779 105.229 104.463 103.225 104.463C102.881 104.463 102.54 104.443 102.205 104.403C104.097 105.616 106.344 106.323 108.759 106.323C116.623 106.323 120.922 99.8088 120.922 94.1591C120.922 93.974 120.918 93.7897 120.91 93.6061C121.746 93.0026 122.472 92.25 123.045 91.3932Z" fill="#27242D"/>
</g>
<g filter="url(#filter2_dd_2239_79796)">
<g filter="url(#filter3_bi_2239_79796)">
<rect x="156.285" y="72.1064" width="181.063" height="181.063" rx="21.3015" fill="white" fill-opacity="0.4"/>
</g>
<path d="M178.626 108.028C178.626 100.969 184.348 95.2471 191.407 95.2471H208.448C215.507 95.2471 221.229 100.969 221.229 108.028V125.069C221.229 132.128 215.507 137.85 208.448 137.85H191.407C184.348 137.85 178.626 132.128 178.626 125.069V108.028Z" fill="#EDEDED"/>
<path d="M197.96 126.774H201.704V117.444H204.836L205.309 113.814H201.704V111.488C201.704 110.44 201.998 109.724 203.506 109.724H205.436V106.465C205.104 106.426 203.967 106.324 202.637 106.324C199.851 106.324 197.96 108.024 197.96 111.13V113.814H194.815V117.444H197.96V126.774Z" fill="#27242D"/>
</g>
<g filter="url(#filter4_dd_2239_79796)">
<g filter="url(#filter5_bi_2239_79796)">
<rect x="243.569" y="90.2129" width="181.063" height="181.063" rx="21.3015" fill="white" fill-opacity="0.4"/>
</g>
<path d="M268.041 127.198C268.041 120.139 273.763 114.417 280.822 114.417H297.863C304.922 114.417 310.644 120.139 310.644 127.198V144.239C310.644 151.298 304.922 157.02 297.863 157.02H280.822C273.763 157.02 268.041 151.298 268.041 144.239V127.198Z" fill="#EDEDED"/>
<path d="M297.863 126.133H280.822C280.539 126.133 280.269 126.245 280.069 126.445C279.869 126.645 279.757 126.915 279.757 127.198V144.239C279.757 144.522 279.869 144.792 280.069 144.992C280.269 145.192 280.539 145.304 280.822 145.304H297.863C298.146 145.304 298.416 145.192 298.616 144.992C298.816 144.792 298.928 144.522 298.928 144.239V127.198C298.928 126.915 298.816 126.645 298.616 126.445C298.416 126.245 298.146 126.133 297.863 126.133V126.133ZM285.443 142.468H282.597V133.319H285.443V142.468ZM284.02 132.07C283.583 132.07 283.164 131.896 282.854 131.587C282.545 131.277 282.372 130.858 282.372 130.421C282.372 129.984 282.545 129.564 282.854 129.255C283.164 128.946 283.583 128.772 284.02 128.772C284.458 128.772 284.877 128.946 285.186 129.255C285.495 129.564 285.669 129.984 285.669 130.421C285.669 130.858 285.495 131.277 285.186 131.587C284.877 131.896 284.458 132.07 284.02 132.07V132.07ZM296.093 142.468H293.25V138.019C293.25 136.958 293.231 135.594 291.772 135.594C290.291 135.594 290.067 136.751 290.067 137.944V142.469H287.226V133.32H289.953V134.57H289.992C290.37 133.851 291.299 133.093 292.68 133.093C295.56 133.093 296.092 134.987 296.092 137.451V142.468H296.093Z" fill="#27242D"/>
</g>
<g filter="url(#filter6_b_2239_79796)">
<rect x="205.632" y="179.638" width="202" height="34" rx="17" fill="#1C2533" fill-opacity="0.8"/>
</g>
<path d="M221.72 189.542H223.16V195.222H223.192C223.373 194.816 223.688 194.491 224.136 194.246C224.584 193.99 225.101 193.862 225.688 193.862C226.051 193.862 226.397 193.92 226.728 194.038C227.069 194.144 227.363 194.315 227.608 194.55C227.864 194.784 228.067 195.088 228.216 195.462C228.365 195.824 228.44 196.256 228.44 196.758V201.638H227V197.158C227 196.806 226.952 196.507 226.856 196.262C226.76 196.006 226.632 195.803 226.472 195.654C226.312 195.494 226.125 195.382 225.912 195.318C225.709 195.243 225.496 195.206 225.272 195.206C224.973 195.206 224.696 195.254 224.44 195.35C224.184 195.446 223.96 195.6 223.768 195.814C223.576 196.016 223.427 196.278 223.32 196.598C223.213 196.918 223.16 197.296 223.16 197.734V201.638H221.72V189.542ZM234.674 195.302H232.61V198.742C232.61 198.955 232.616 199.168 232.626 199.382C232.637 199.584 232.674 199.771 232.738 199.942C232.813 200.102 232.92 200.235 233.058 200.342C233.208 200.438 233.421 200.486 233.698 200.486C233.869 200.486 234.045 200.47 234.226 200.438C234.408 200.406 234.573 200.347 234.722 200.262V201.574C234.552 201.67 234.328 201.734 234.05 201.766C233.784 201.808 233.576 201.83 233.426 201.83C232.872 201.83 232.44 201.755 232.13 201.606C231.832 201.446 231.608 201.243 231.458 200.998C231.32 200.752 231.234 200.48 231.202 200.182C231.181 199.872 231.17 199.563 231.17 199.254V195.302H229.506V194.054H231.17V191.926H232.61V194.054H234.674V195.302ZM240.596 195.302H238.532V198.742C238.532 198.955 238.538 199.168 238.548 199.382C238.559 199.584 238.596 199.771 238.66 199.942C238.735 200.102 238.842 200.235 238.98 200.342C239.13 200.438 239.343 200.486 239.62 200.486C239.791 200.486 239.967 200.47 240.148 200.438C240.33 200.406 240.495 200.347 240.644 200.262V201.574C240.474 201.67 240.25 201.734 239.972 201.766C239.706 201.808 239.498 201.83 239.348 201.83C238.794 201.83 238.362 201.755 238.052 201.606C237.754 201.446 237.53 201.243 237.38 200.998C237.242 200.752 237.156 200.48 237.124 200.182C237.103 199.872 237.092 199.563 237.092 199.254V195.302H235.428V194.054H237.092V191.926H238.532V194.054H240.596V195.302ZM242.454 194.054H243.894V195.142H243.926C244.204 194.736 244.582 194.422 245.062 194.198C245.553 193.974 246.054 193.862 246.566 193.862C247.153 193.862 247.681 193.963 248.15 194.166C248.63 194.368 249.036 194.651 249.366 195.014C249.708 195.376 249.969 195.803 250.15 196.294C250.332 196.774 250.422 197.291 250.422 197.846C250.422 198.411 250.332 198.939 250.15 199.43C249.969 199.91 249.708 200.331 249.366 200.694C249.036 201.046 248.63 201.323 248.15 201.526C247.681 201.728 247.153 201.83 246.566 201.83C246.022 201.83 245.51 201.718 245.03 201.494C244.55 201.259 244.182 200.944 243.926 200.55H243.894V206.15H242.454V194.054ZM246.39 195.206C246.006 195.206 245.66 195.275 245.35 195.414C245.041 195.542 244.78 195.723 244.566 195.958C244.353 196.182 244.188 196.459 244.07 196.79C243.953 197.11 243.894 197.462 243.894 197.846C243.894 198.23 243.953 198.587 244.07 198.918C244.188 199.238 244.353 199.515 244.566 199.75C244.78 199.974 245.041 200.155 245.35 200.294C245.66 200.422 246.006 200.486 246.39 200.486C246.774 200.486 247.121 200.422 247.43 200.294C247.74 200.155 248.001 199.974 248.214 199.75C248.428 199.515 248.593 199.238 248.71 198.918C248.828 198.587 248.886 198.23 248.886 197.846C248.886 197.462 248.828 197.11 248.71 196.79C248.593 196.459 248.428 196.182 248.214 195.958C248.001 195.723 247.74 195.542 247.43 195.414C247.121 195.275 246.774 195.206 246.39 195.206ZM256.267 195.958C256.097 195.744 255.883 195.568 255.627 195.43C255.382 195.28 255.078 195.206 254.715 195.206C254.374 195.206 254.075 195.28 253.819 195.43C253.574 195.568 253.451 195.776 253.451 196.054C253.451 196.278 253.521 196.459 253.659 196.598C253.809 196.736 253.979 196.848 254.171 196.934C254.374 197.019 254.587 197.083 254.811 197.126C255.035 197.168 255.227 197.206 255.387 197.238C255.697 197.312 255.985 197.403 256.251 197.51C256.529 197.616 256.763 197.755 256.955 197.926C257.158 198.096 257.313 198.304 257.419 198.55C257.537 198.795 257.595 199.094 257.595 199.446C257.595 199.872 257.505 200.24 257.323 200.55C257.142 200.848 256.907 201.094 256.619 201.286C256.331 201.478 256.001 201.616 255.627 201.702C255.265 201.787 254.897 201.83 254.523 201.83C253.894 201.83 253.339 201.734 252.859 201.542C252.39 201.35 251.969 200.998 251.595 200.486L252.683 199.59C252.918 199.824 253.179 200.032 253.467 200.214C253.755 200.395 254.107 200.486 254.523 200.486C254.705 200.486 254.886 200.47 255.067 200.438C255.259 200.395 255.425 200.336 255.563 200.262C255.713 200.176 255.83 200.075 255.915 199.958C256.011 199.83 256.059 199.686 256.059 199.526C256.059 199.312 255.99 199.136 255.851 198.998C255.723 198.859 255.563 198.752 255.371 198.678C255.19 198.592 254.993 198.528 254.779 198.486C254.577 198.432 254.395 198.39 254.235 198.358C253.926 198.283 253.633 198.198 253.355 198.102C253.078 198.006 252.833 197.878 252.619 197.718C252.406 197.558 252.235 197.355 252.107 197.11C251.979 196.864 251.915 196.56 251.915 196.198C251.915 195.803 251.995 195.462 252.155 195.174C252.326 194.875 252.545 194.63 252.811 194.438C253.089 194.246 253.398 194.102 253.739 194.006C254.091 193.91 254.443 193.862 254.795 193.862C255.307 193.862 255.798 193.958 256.267 194.15C256.737 194.342 257.11 194.662 257.387 195.11L256.267 195.958ZM260.481 196.07C260.193 196.07 259.942 195.968 259.729 195.766C259.526 195.552 259.425 195.302 259.425 195.014C259.425 194.726 259.526 194.48 259.729 194.278C259.942 194.064 260.193 193.958 260.481 193.958C260.769 193.958 261.014 194.064 261.217 194.278C261.43 194.48 261.537 194.726 261.537 195.014C261.537 195.302 261.43 195.552 261.217 195.766C261.014 195.968 260.769 196.07 260.481 196.07ZM259.425 200.678C259.425 200.39 259.526 200.144 259.729 199.942C259.942 199.728 260.193 199.622 260.481 199.622C260.769 199.622 261.014 199.728 261.217 199.942C261.43 200.144 261.537 200.39 261.537 200.678C261.537 200.966 261.43 201.216 261.217 201.43C261.014 201.632 260.769 201.734 260.481 201.734C260.193 201.734 259.942 201.632 259.729 201.43C259.526 201.216 259.425 200.966 259.425 200.678ZM263.83 202.342L262.71 201.926L267.83 189.606L268.934 190.022L263.83 202.342ZM270.049 202.342L268.929 201.926L274.049 189.606L275.153 190.022L270.049 202.342ZM280.267 195.958C280.097 195.744 279.883 195.568 279.627 195.43C279.382 195.28 279.078 195.206 278.715 195.206C278.374 195.206 278.075 195.28 277.819 195.43C277.574 195.568 277.451 195.776 277.451 196.054C277.451 196.278 277.521 196.459 277.659 196.598C277.809 196.736 277.979 196.848 278.171 196.934C278.374 197.019 278.587 197.083 278.811 197.126C279.035 197.168 279.227 197.206 279.387 197.238C279.697 197.312 279.985 197.403 280.251 197.51C280.529 197.616 280.763 197.755 280.955 197.926C281.158 198.096 281.313 198.304 281.419 198.55C281.537 198.795 281.595 199.094 281.595 199.446C281.595 199.872 281.505 200.24 281.323 200.55C281.142 200.848 280.907 201.094 280.619 201.286C280.331 201.478 280.001 201.616 279.627 201.702C279.265 201.787 278.897 201.83 278.523 201.83C277.894 201.83 277.339 201.734 276.859 201.542C276.39 201.35 275.969 200.998 275.595 200.486L276.683 199.59C276.918 199.824 277.179 200.032 277.467 200.214C277.755 200.395 278.107 200.486 278.523 200.486C278.705 200.486 278.886 200.47 279.067 200.438C279.259 200.395 279.425 200.336 279.563 200.262C279.713 200.176 279.83 200.075 279.915 199.958C280.011 199.83 280.059 199.686 280.059 199.526C280.059 199.312 279.99 199.136 279.851 198.998C279.723 198.859 279.563 198.752 279.371 198.678C279.19 198.592 278.993 198.528 278.779 198.486C278.577 198.432 278.395 198.39 278.235 198.358C277.926 198.283 277.633 198.198 277.355 198.102C277.078 198.006 276.833 197.878 276.619 197.718C276.406 197.558 276.235 197.355 276.107 197.11C275.979 196.864 275.915 196.56 275.915 196.198C275.915 195.803 275.995 195.462 276.155 195.174C276.326 194.875 276.545 194.63 276.811 194.438C277.089 194.246 277.398 194.102 277.739 194.006C278.091 193.91 278.443 193.862 278.795 193.862C279.307 193.862 279.798 193.958 280.267 194.15C280.737 194.342 281.11 194.662 281.387 195.11L280.267 195.958ZM284.433 198.374C284.433 198.704 284.502 199.008 284.641 199.286C284.79 199.552 284.982 199.782 285.217 199.974C285.452 200.166 285.724 200.315 286.033 200.422C286.342 200.528 286.662 200.582 286.993 200.582C287.441 200.582 287.83 200.48 288.161 200.278C288.492 200.064 288.796 199.787 289.073 199.446L290.161 200.278C289.361 201.312 288.241 201.83 286.801 201.83C286.204 201.83 285.66 201.728 285.169 201.526C284.689 201.323 284.278 201.046 283.937 200.694C283.606 200.331 283.35 199.91 283.169 199.43C282.988 198.939 282.897 198.411 282.897 197.846C282.897 197.28 282.993 196.758 283.185 196.278C283.388 195.787 283.66 195.366 284.001 195.014C284.353 194.651 284.769 194.368 285.249 194.166C285.729 193.963 286.252 193.862 286.817 193.862C287.489 193.862 288.054 193.979 288.513 194.214C288.982 194.448 289.366 194.758 289.665 195.142C289.964 195.515 290.177 195.942 290.305 196.422C290.444 196.891 290.513 197.371 290.513 197.862V198.374H284.433ZM288.977 197.222C288.966 196.902 288.913 196.608 288.817 196.342C288.732 196.075 288.598 195.846 288.417 195.654C288.236 195.451 288.006 195.296 287.729 195.19C287.462 195.072 287.148 195.014 286.785 195.014C286.433 195.014 286.108 195.083 285.809 195.222C285.521 195.35 285.276 195.52 285.073 195.734C284.87 195.947 284.71 196.187 284.593 196.454C284.486 196.71 284.433 196.966 284.433 197.222H288.977ZM292.235 194.054H293.675V195.222H293.707C293.803 195.019 293.931 194.838 294.091 194.678C294.251 194.507 294.427 194.363 294.619 194.246C294.822 194.128 295.041 194.038 295.275 193.974C295.51 193.899 295.745 193.862 295.979 193.862C296.214 193.862 296.427 193.894 296.619 193.958L296.555 195.51C296.438 195.478 296.321 195.451 296.203 195.43C296.086 195.408 295.969 195.398 295.851 195.398C295.147 195.398 294.609 195.595 294.235 195.99C293.862 196.384 293.675 196.998 293.675 197.83V201.638H292.235V194.054ZM297.245 194.054H298.909L301.181 199.862L303.357 194.054H304.893L301.917 201.638H300.333L297.245 194.054ZM306.269 194.054H307.709V201.638H306.269V194.054ZM305.933 191.334C305.933 191.046 306.035 190.8 306.237 190.598C306.451 190.384 306.701 190.278 306.989 190.278C307.277 190.278 307.523 190.384 307.725 190.598C307.939 190.8 308.045 191.046 308.045 191.334C308.045 191.622 307.939 191.872 307.725 192.086C307.523 192.288 307.277 192.39 306.989 192.39C306.701 192.39 306.451 192.288 306.237 192.086C306.035 191.872 305.933 191.622 305.933 191.334ZM315.425 196.07C315.158 195.792 314.876 195.584 314.577 195.446C314.289 195.296 313.942 195.222 313.537 195.222C313.142 195.222 312.796 195.296 312.497 195.446C312.209 195.584 311.964 195.782 311.761 196.038C311.569 196.283 311.42 196.571 311.313 196.902C311.217 197.222 311.169 197.558 311.169 197.91C311.169 198.262 311.228 198.598 311.345 198.918C311.462 199.227 311.628 199.499 311.841 199.734C312.054 199.968 312.31 200.155 312.609 200.294C312.908 200.422 313.244 200.486 313.617 200.486C314.022 200.486 314.369 200.416 314.657 200.278C314.945 200.128 315.212 199.915 315.457 199.638L316.481 200.662C316.108 201.078 315.67 201.376 315.169 201.558C314.678 201.739 314.156 201.83 313.601 201.83C313.014 201.83 312.476 201.734 311.985 201.542C311.505 201.35 311.089 201.083 310.737 200.742C310.385 200.39 310.113 199.974 309.921 199.494C309.729 199.003 309.633 198.464 309.633 197.878C309.633 197.291 309.729 196.752 309.921 196.262C310.113 195.771 310.38 195.35 310.721 194.998C311.073 194.646 311.489 194.374 311.969 194.182C312.46 193.979 313.004 193.878 313.601 193.878C314.156 193.878 314.684 193.979 315.185 194.182C315.697 194.374 316.14 194.672 316.513 195.078L315.425 196.07ZM318.808 198.374C318.808 198.704 318.877 199.008 319.016 199.286C319.165 199.552 319.357 199.782 319.592 199.974C319.827 200.166 320.099 200.315 320.408 200.422C320.717 200.528 321.037 200.582 321.368 200.582C321.816 200.582 322.205 200.48 322.536 200.278C322.867 200.064 323.171 199.787 323.448 199.446L324.536 200.278C323.736 201.312 322.616 201.83 321.176 201.83C320.579 201.83 320.035 201.728 319.544 201.526C319.064 201.323 318.653 201.046 318.312 200.694C317.981 200.331 317.725 199.91 317.544 199.43C317.363 198.939 317.272 198.411 317.272 197.846C317.272 197.28 317.368 196.758 317.56 196.278C317.763 195.787 318.035 195.366 318.376 195.014C318.728 194.651 319.144 194.368 319.624 194.166C320.104 193.963 320.627 193.862 321.192 193.862C321.864 193.862 322.429 193.979 322.888 194.214C323.357 194.448 323.741 194.758 324.04 195.142C324.339 195.515 324.552 195.942 324.68 196.422C324.819 196.891 324.888 197.371 324.888 197.862V198.374H318.808ZM323.352 197.222C323.341 196.902 323.288 196.608 323.192 196.342C323.107 196.075 322.973 195.846 322.792 195.654C322.611 195.451 322.381 195.296 322.104 195.19C321.837 195.072 321.523 195.014 321.16 195.014C320.808 195.014 320.483 195.083 320.184 195.222C319.896 195.35 319.651 195.52 319.448 195.734C319.245 195.947 319.085 196.187 318.968 196.454C318.861 196.71 318.808 196.966 318.808 197.222H323.352ZM326.61 194.054H328.05V195.222H328.082C328.264 194.816 328.578 194.491 329.026 194.246C329.474 193.99 329.992 193.862 330.578 193.862C330.941 193.862 331.288 193.92 331.618 194.038C331.96 194.144 332.253 194.315 332.498 194.55C332.754 194.784 332.957 195.088 333.106 195.462C333.256 195.824 333.33 196.256 333.33 196.758V201.638H331.89V197.158C331.89 196.806 331.842 196.507 331.746 196.262C331.65 196.006 331.522 195.803 331.362 195.654C331.202 195.494 331.016 195.382 330.802 195.318C330.6 195.243 330.386 195.206 330.162 195.206C329.864 195.206 329.586 195.254 329.33 195.35C329.074 195.446 328.85 195.6 328.658 195.814C328.466 196.016 328.317 196.278 328.21 196.598C328.104 196.918 328.05 197.296 328.05 197.734V201.638H326.61V194.054ZM335.533 194.982C335.938 194.608 336.408 194.331 336.941 194.15C337.474 193.958 338.008 193.862 338.541 193.862C339.096 193.862 339.57 193.931 339.965 194.07C340.37 194.208 340.701 194.395 340.957 194.63C341.213 194.864 341.4 195.136 341.517 195.446C341.645 195.744 341.709 196.059 341.709 196.39V200.262C341.709 200.528 341.714 200.774 341.725 200.998C341.736 201.222 341.752 201.435 341.773 201.638H340.493C340.461 201.254 340.445 200.87 340.445 200.486H340.413C340.093 200.976 339.714 201.323 339.277 201.526C338.84 201.728 338.333 201.83 337.757 201.83C337.405 201.83 337.069 201.782 336.749 201.686C336.429 201.59 336.146 201.446 335.901 201.254C335.666 201.062 335.48 200.827 335.341 200.55C335.202 200.262 335.133 199.931 335.133 199.558C335.133 199.067 335.24 198.656 335.453 198.326C335.677 197.995 335.976 197.728 336.349 197.526C336.733 197.312 337.176 197.163 337.677 197.078C338.189 196.982 338.733 196.934 339.309 196.934H340.365V196.614C340.365 196.422 340.328 196.23 340.253 196.038C340.178 195.846 340.066 195.675 339.917 195.526C339.768 195.366 339.581 195.243 339.357 195.158C339.133 195.062 338.866 195.014 338.557 195.014C338.28 195.014 338.034 195.04 337.821 195.094C337.618 195.147 337.432 195.216 337.261 195.302C337.09 195.376 336.936 195.467 336.797 195.574C336.658 195.68 336.525 195.782 336.397 195.878L335.533 194.982ZM339.597 197.99C339.256 197.99 338.904 198.011 338.541 198.054C338.189 198.086 337.864 198.155 337.565 198.262C337.277 198.368 337.037 198.518 336.845 198.71C336.664 198.902 336.573 199.147 336.573 199.446C336.573 199.883 336.717 200.198 337.005 200.39C337.304 200.582 337.704 200.678 338.205 200.678C338.6 200.678 338.936 200.614 339.213 200.486C339.49 200.347 339.714 200.171 339.885 199.958C340.056 199.744 340.178 199.51 340.253 199.254C340.328 198.987 340.365 198.726 340.365 198.47V197.99H339.597ZM343.798 194.054H345.142V195.238H345.174C345.206 195.131 345.286 194.998 345.414 194.838C345.553 194.678 345.723 194.528 345.926 194.39C346.139 194.24 346.385 194.118 346.662 194.022C346.95 193.915 347.265 193.862 347.606 193.862C348.171 193.862 348.646 193.979 349.03 194.214C349.414 194.448 349.729 194.8 349.974 195.27C350.219 194.8 350.566 194.448 351.014 194.214C351.462 193.979 351.915 193.862 352.374 193.862C352.961 193.862 353.441 193.958 353.814 194.15C354.187 194.342 354.481 194.598 354.694 194.918C354.907 195.227 355.051 195.584 355.126 195.99C355.211 196.384 355.254 196.795 355.254 197.222V201.638H353.814V197.414C353.814 197.126 353.793 196.848 353.75 196.582C353.718 196.315 353.643 196.08 353.526 195.878C353.409 195.675 353.243 195.515 353.03 195.398C352.817 195.27 352.534 195.206 352.182 195.206C351.489 195.206 350.993 195.419 350.694 195.846C350.395 196.272 350.246 196.822 350.246 197.494V201.638H348.806V197.67C348.806 197.307 348.785 196.976 348.742 196.678C348.71 196.379 348.635 196.123 348.518 195.91C348.411 195.686 348.251 195.515 348.038 195.398C347.835 195.27 347.558 195.206 347.206 195.206C346.95 195.206 346.699 195.259 346.454 195.366C346.219 195.462 346.011 195.611 345.83 195.814C345.649 196.016 345.505 196.278 345.398 196.598C345.291 196.907 345.238 197.275 345.238 197.702V201.638H343.798V194.054ZM358.511 198.374C358.511 198.704 358.58 199.008 358.719 199.286C358.868 199.552 359.06 199.782 359.295 199.974C359.53 200.166 359.802 200.315 360.111 200.422C360.42 200.528 360.74 200.582 361.071 200.582C361.519 200.582 361.908 200.48 362.239 200.278C362.57 200.064 362.874 199.787 363.151 199.446L364.239 200.278C363.439 201.312 362.319 201.83 360.879 201.83C360.282 201.83 359.738 201.728 359.247 201.526C358.767 201.323 358.356 201.046 358.015 200.694C357.684 200.331 357.428 199.91 357.247 199.43C357.066 198.939 356.975 198.411 356.975 197.846C356.975 197.28 357.071 196.758 357.263 196.278C357.466 195.787 357.738 195.366 358.079 195.014C358.431 194.651 358.847 194.368 359.327 194.166C359.807 193.963 360.33 193.862 360.895 193.862C361.567 193.862 362.132 193.979 362.591 194.214C363.06 194.448 363.444 194.758 363.743 195.142C364.042 195.515 364.255 195.942 364.383 196.422C364.522 196.891 364.591 197.371 364.591 197.862V198.374H358.511ZM363.055 197.222C363.044 196.902 362.991 196.608 362.895 196.342C362.81 196.075 362.676 195.846 362.495 195.654C362.314 195.451 362.084 195.296 361.807 195.19C361.54 195.072 361.226 195.014 360.863 195.014C360.511 195.014 360.186 195.083 359.887 195.222C359.599 195.35 359.354 195.52 359.151 195.734C358.948 195.947 358.788 196.187 358.671 196.454C358.564 196.71 358.511 196.966 358.511 197.222H363.055ZM366.346 202.342L365.226 201.926L370.346 189.606L371.45 190.022L366.346 202.342ZM373.668 201.734C373.38 201.734 373.13 201.632 372.916 201.43C372.714 201.216 372.612 200.966 372.612 200.678C372.612 200.39 372.714 200.144 372.916 199.942C373.13 199.728 373.38 199.622 373.668 199.622C373.956 199.622 374.202 199.728 374.404 199.942C374.618 200.144 374.724 200.39 374.724 200.678C374.724 200.966 374.618 201.216 374.404 201.43C374.202 201.632 373.956 201.734 373.668 201.734ZM378.121 201.734C377.833 201.734 377.583 201.632 377.369 201.43C377.167 201.216 377.065 200.966 377.065 200.678C377.065 200.39 377.167 200.144 377.369 199.942C377.583 199.728 377.833 199.622 378.121 199.622C378.409 199.622 378.655 199.728 378.857 199.942C379.071 200.144 379.177 200.39 379.177 200.678C379.177 200.966 379.071 201.216 378.857 201.43C378.655 201.632 378.409 201.734 378.121 201.734ZM382.575 201.734C382.287 201.734 382.036 201.632 381.823 201.43C381.62 201.216 381.519 200.966 381.519 200.678C381.519 200.39 381.62 200.144 381.823 199.942C382.036 199.728 382.287 199.622 382.575 199.622C382.863 199.622 383.108 199.728 383.311 199.942C383.524 200.144 383.631 200.39 383.631 200.678C383.631 200.966 383.524 201.216 383.311 201.43C383.108 201.632 382.863 201.734 382.575 201.734Z" fill="white"/>
<defs>
<filter id="filter0_dd_2239_79796" x="0.835243" y="0.746284" width="296.091" height="306.741" filterUnits="userSpaceOnUse" color-interpolation-filters="sRGB">
<feFlood flood-opacity="0" result="BackgroundImageFix"/>
<feColorMatrix in="SourceAlpha" type="matrix" values="0 0 0 0 0 0 0 0 0 0 0 0 0 0 0 0 0 0 127 0" result="hardAlpha"/>
<feOffset dx="-21.3015" dy="25.5618"/>
<feGaussianBlur stdDeviation="23.4316"/>
<feComposite in2="hardAlpha" operator="out"/>
<feColorMatrix type="matrix" values="0 0 0 0 1 0 0 0 0 0.596875 0 0 0 0 0.4625 0 0 0 0.12 0"/>
<feBlend mode="normal" in2="BackgroundImageFix" result="effect1_dropShadow_2239_79796"/>
<feColorMatrix in="SourceAlpha" type="matrix" values="0 0 0 0 0 0 0 0 0 0 0 0 0 0 0 0 0 0 127 0" result="hardAlpha"/>
<feOffset dy="-6.39045"/>
<feGaussianBlur stdDeviation="23.4316"/>
<feComposite in2="hardAlpha" operator="out"/>
<feColorMatrix type="matrix" values="0 0 0 0 0.447059 0 0 0 0 0.639216 0 0 0 0 0.941176 0 0 0 0.29 0"/>
<feBlend mode="normal" in2="effect1_dropShadow_2239_79796" result="effect2_dropShadow_2239_79796"/>
<feBlend mode="normal" in="SourceGraphic" in2="effect2_dropShadow_2239_79796" result="shape"/>
</filter>
<filter id="filter1_bi_2239_79796" x="45" y="30" width="229.062" height="229.062" filterUnits="userSpaceOnUse" color-interpolation-filters="sRGB">
<feFlood flood-opacity="0" result="BackgroundImageFix"/>
<feGaussianBlur in="BackgroundImage" stdDeviation="12"/>
<feComposite in2="SourceAlpha" operator="in" result="effect1_backgroundBlur_2239_79796"/>
<feBlend mode="normal" in="SourceGraphic" in2="effect1_backgroundBlur_2239_79796" result="shape"/>
<feColorMatrix in="SourceAlpha" type="matrix" values="0 0 0 0 0 0 0 0 0 0 0 0 0 0 0 0 0 0 127 0" result="hardAlpha"/>
<feOffset dx="3.19522" dy="2.13015"/>
<feGaussianBlur stdDeviation="5.85791"/>
<feComposite in2="hardAlpha" operator="arithmetic" k2="-1" k3="1"/>
<feColorMatrix type="matrix" values="0 0 0 0 1 0 0 0 0 1 0 0 0 0 1 0 0 0 0.25 0"/>
<feBlend mode="normal" in2="shape" result="effect2_innerShadow_2239_79796"/>
</filter>
<filter id="filter2_dd_2239_79796" x="88.1204" y="18.8527" width="296.091" height="306.741" filterUnits="userSpaceOnUse" color-interpolation-filters="sRGB">
<feFlood flood-opacity="0" result="BackgroundImageFix"/>
<feColorMatrix in="SourceAlpha" type="matrix" values="0 0 0 0 0 0 0 0 0 0 0 0 0 0 0 0 0 0 127 0" result="hardAlpha"/>
<feOffset dx="-21.3015" dy="25.5618"/>
<feGaussianBlur stdDeviation="23.4316"/>
<feComposite in2="hardAlpha" operator="out"/>
<feColorMatrix type="matrix" values="0 0 0 0 1 0 0 0 0 0.596875 0 0 0 0 0.4625 0 0 0 0.12 0"/>
<feBlend mode="normal" in2="BackgroundImageFix" result="effect1_dropShadow_2239_79796"/>
<feColorMatrix in="SourceAlpha" type="matrix" values="0 0 0 0 0 0 0 0 0 0 0 0 0 0 0 0 0 0 127 0" result="hardAlpha"/>
<feOffset dy="-6.39045"/>
<feGaussianBlur stdDeviation="23.4316"/>
<feComposite in2="hardAlpha" operator="out"/>
<feColorMatrix type="matrix" values="0 0 0 0 0.447059 0 0 0 0 0.639216 0 0 0 0 0.941176 0 0 0 0.29 0"/>
<feBlend mode="normal" in2="effect1_dropShadow_2239_79796" result="effect2_dropShadow_2239_79796"/>
<feBlend mode="normal" in="SourceGraphic" in2="effect2_dropShadow_2239_79796" result="shape"/>
</filter>
<filter id="filter3_bi_2239_79796" x="132.285" y="48.1064" width="229.062" height="229.062" filterUnits="userSpaceOnUse" color-interpolation-filters="sRGB">
<feFlood flood-opacity="0" result="BackgroundImageFix"/>
<feGaussianBlur in="BackgroundImage" stdDeviation="12"/>
<feComposite in2="SourceAlpha" operator="in" result="effect1_backgroundBlur_2239_79796"/>
<feBlend mode="normal" in="SourceGraphic" in2="effect1_backgroundBlur_2239_79796" result="shape"/>
<feColorMatrix in="SourceAlpha" type="matrix" values="0 0 0 0 0 0 0 0 0 0 0 0 0 0 0 0 0 0 127 0" result="hardAlpha"/>
<feOffset dx="3.19522" dy="2.13015"/>
<feGaussianBlur stdDeviation="5.85791"/>
<feComposite in2="hardAlpha" operator="arithmetic" k2="-1" k3="1"/>
<feColorMatrix type="matrix" values="0 0 0 0 1 0 0 0 0 1 0 0 0 0 1 0 0 0 0.25 0"/>
<feBlend mode="normal" in2="shape" result="effect2_innerShadow_2239_79796"/>
</filter>
<filter id="filter4_dd_2239_79796" x="175.405" y="36.9592" width="296.091" height="306.741" filterUnits="userSpaceOnUse" color-interpolation-filters="sRGB">
<feFlood flood-opacity="0" result="BackgroundImageFix"/>
<feColorMatrix in="SourceAlpha" type="matrix" values="0 0 0 0 0 0 0 0 0 0 0 0 0 0 0 0 0 0 127 0" result="hardAlpha"/>
<feOffset dx="-21.3015" dy="25.5618"/>
<feGaussianBlur stdDeviation="23.4316"/>
<feComposite in2="hardAlpha" operator="out"/>
<feColorMatrix type="matrix" values="0 0 0 0 1 0 0 0 0 0.596875 0 0 0 0 0.4625 0 0 0 0.12 0"/>
<feBlend mode="normal" in2="BackgroundImageFix" result="effect1_dropShadow_2239_79796"/>
<feColorMatrix in="SourceAlpha" type="matrix" values="0 0 0 0 0 0 0 0 0 0 0 0 0 0 0 0 0 0 127 0" result="hardAlpha"/>
<feOffset dy="-6.39045"/>
<feGaussianBlur stdDeviation="23.4316"/>
<feComposite in2="hardAlpha" operator="out"/>
<feColorMatrix type="matrix" values="0 0 0 0 0.447059 0 0 0 0 0.639216 0 0 0 0 0.941176 0 0 0 0.29 0"/>
<feBlend mode="normal" in2="effect1_dropShadow_2239_79796" result="effect2_dropShadow_2239_79796"/>
<feBlend mode="normal" in="SourceGraphic" in2="effect2_dropShadow_2239_79796" result="shape"/>
</filter>
<filter id="filter5_bi_2239_79796" x="219.569" y="66.2129" width="229.062" height="229.062" filterUnits="userSpaceOnUse" color-interpolation-filters="sRGB">
<feFlood flood-opacity="0" result="BackgroundImageFix"/>
<feGaussianBlur in="BackgroundImage" stdDeviation="12"/>
<feComposite in2="SourceAlpha" operator="in" result="effect1_backgroundBlur_2239_79796"/>
<feBlend mode="normal" in="SourceGraphic" in2="effect1_backgroundBlur_2239_79796" result="shape"/>
<feColorMatrix in="SourceAlpha" type="matrix" values="0 0 0 0 0 0 0 0 0 0 0 0 0 0 0 0 0 0 127 0" result="hardAlpha"/>
<feOffset dx="3.19522" dy="2.13015"/>
<feGaussianBlur stdDeviation="5.85791"/>
<feComposite in2="hardAlpha" operator="arithmetic" k2="-1" k3="1"/>
<feColorMatrix type="matrix" values="0 0 0 0 1 0 0 0 0 1 0 0 0 0 1 0 0 0 0.25 0"/>
<feBlend mode="normal" in2="shape" result="effect2_innerShadow_2239_79796"/>
</filter>
<filter id="filter6_b_2239_79796" x="141.632" y="115.638" width="330" height="162" filterUnits="userSpaceOnUse" color-interpolation-filters="sRGB">
<feFlood flood-opacity="0" result="BackgroundImageFix"/>
<feGaussianBlur in="BackgroundImage" stdDeviation="32"/>
<feComposite in2="SourceAlpha" operator="in" result="effect1_backgroundBlur_2239_79796"/>
<feBlend mode="normal" in="SourceGraphic" in2="effect1_backgroundBlur_2239_79796" result="shape"/>
</filter>
</defs>
</svg>
